<svg width="1280" height="2000" viewBox="0 0 1280 2000" fill="none" xmlns="http://www.w3.org/2000/svg">
<g clip-path="url(#clip0_2008_20)">
<rect width="1280" height="2000" fill="#FEFEFE"/>
<g filter="url(#filter0_d_2008_20)">
<path d="M0 30C0 13.4315 13.4315 0 30 0H1250C1266.57 0 1280 13.4315 1280 30V270H0V30Z" fill="#0054C3"/>
</g>
<g filter="url(#filter1_d_2008_20)">
<path d="M0 271C0 188.157 67.1573 121 150 121H1280V1965C1280 1984.33 1264.33 2000 1245 2000H35C15.67 2000 0 1984.33 0 1965V271Z" fill="#FFFFF8"/>
</g>
<path d="M0 211C0 161.294 40.2944 121 90 121H731V222C731 241.33 715.33 257 696 257H0V211Z" fill="#E66C37"/>
<path d="M1177 52C1177 40.9543 1185.95 32 1197 32H1234V69C1234 80.0457 1225.05 89 1214 89H1177V52Z" fill="#09124F"/>
<path d="M151 89H783C783 91.2091 781.209 93 779 93H155C152.791 93 151 91.2091 151 89Z" fill="#09124F"/>
</g>
<defs>
<filter id="filter0_d_2008_20" x="-4" y="0" width="1288" height="278" filterUnits="userSpaceOnUse" color-interpolation-filters="sRGB">
<feFlood flood-opacity="0" result="BackgroundImageFix"/>
<feColorMatrix in="SourceAlpha" type="matrix" values="0 0 0 0 0 0 0 0 0 0 0 0 0 0 0 0 0 0 127 0" result="hardAlpha"/>
<feOffset dy="4"/>
<feGaussianBlur stdDeviation="2"/>
<feComposite in2="hardAlpha" operator="out"/>
<feColorMatrix type="matrix" values="0 0 0 0 0 0 0 0 0 0 0 0 0 0 0 0 0 0 0.25 0"/>
<feBlend mode="normal" in2="BackgroundImageFix" result="effect1_dropShadow_2008_20"/>
<feBlend mode="normal" in="SourceGraphic" in2="effect1_dropShadow_2008_20" result="shape"/>
</filter>
<filter id="filter1_d_2008_20" x="-5" y="120" width="1290" height="1889" filterUnits="userSpaceOnUse" color-interpolation-filters="sRGB">
<feFlood flood-opacity="0" result="BackgroundImageFix"/>
<feColorMatrix in="SourceAlpha" type="matrix" values="0 0 0 0 0 0 0 0 0 0 0 0 0 0 0 0 0 0 127 0" result="hardAlpha"/>
<feOffset dy="4"/>
<feGaussianBlur stdDeviation="2.5"/>
<feComposite in2="hardAlpha" operator="out"/>
<feColorMatrix type="matrix" values="0 0 0 0 0 0 0 0 0 0 0 0 0 0 0 0 0 0 0.25 0"/>
<feBlend mode="normal" in2="BackgroundImageFix" result="effect1_dropShadow_2008_20"/>
<feBlend mode="normal" in="SourceGraphic" in2="effect1_dropShadow_2008_20" result="shape"/>
</filter>
<clipPath id="clip0_2008_20">
<rect width="1280" height="2000" fill="white"/>
</clipPath>
</defs>
</svg>
